<?xml version="1.0" encoding="UTF-8"?>
<svg version="1.1" xmlns="http://www.w3.org/2000/svg" width="64" height="64">
<path d="M0 0 C4.36206448 -0.15305489 7.48295221 -0.15774339 11.6875 1.125 C15.5727761 2.15129935 16.44019283 1.56284217 20 0 C22.69249997 -0.18151685 25.29693649 -0.09162927 28 0 C28 0.66 28 1.32 28 2 C29.32 2 30.64 2 32 2 C32 5.3 32 8.6 32 12 C34.31 12 36.62 12 39 12 C40.9960615 15.32150945 41.24399211 17.84090106 41.1875 21.6875 C41.18105469 22.66074219 41.17460938 23.63398438 41.16796875 24.63671875 C41 27 41 27 40 28 C39.84141158 30.14386657 39.74870702 32.29266838 39.68359375 34.44140625 C39.64548584 35.61646729 39.60737793 36.79152832 39.56811523 38.00219727 C39.52501221 39.50709717 39.48190918 41.01199707 39.4375 42.5625 C39.293125 47.326875 39.14875 52.09125 39 57 C21.84 57 4.68 57 -13 57 C-13.4375 42.5625 -13.4375 42.5625 -13.56811523 38.00219727 C-13.60622314 36.82713623 -13.64433105 35.6520752 -13.68359375 34.44140625 C-13.72025146 33.23170166 -13.75690918 32.02199707 -13.79467773 30.77563477 C-13.68938266 28.09294544 -13.68938266 28.09294544 -15 27 C-15.12562235 25.23252271 -15.17576558 23.45939708 -15.1875 21.6875 C-15.20167969 20.72199219 -15.21585938 19.75648437 -15.23046875 18.76171875 C-15 16 -15 16 -13 12 C-10.03 12 -7.06 12 -4 12 C-4 8.7 -4 5.4 -4 2 C-2.68 2 -1.36 2 0 2 C0 1.34 0 0.68 0 0 Z " fill="#949A9B" transform="translate(19,3)"/>
<path d="M0 0 C4.36206448 -0.15305489 7.48295221 -0.15774339 11.6875 1.125 C15.5727761 2.15129935 16.44019283 1.56284217 20 0 C22.69249997 -0.18151685 25.29693649 -0.09162927 28 0 C28 0.66 28 1.32 28 2 C29.32 2 30.64 2 32 2 C32 5.3 32 8.6 32 12 C34.31 12 36.62 12 39 12 C41.09350689 15.4019487 41.17942163 18.05272412 41 22 C38.36 22 35.72 22 33 22 C32.505 24.475 32.505 24.475 32 27 C29.625 27.625 29.625 27.625 27 28 C26.34 27.34 25.68 26.68 25 26 C25 24.68 25 23.36 25 22 C22.36 22 19.72 22 17 22 C16.67 23.65 16.34 25.3 16 27 C13.625 27.625 13.625 27.625 11 28 C10.34 27.34 9.68 26.68 9 26 C9 24.68 9 23.36 9 22 C6.36 22 3.72 22 1 22 C0.67 23.65 0.34 25.3 0 27 C-2.375 27.625 -2.375 27.625 -5 28 C-5.66 27.34 -6.32 26.68 -7 26 C-7 24.68 -7 23.36 -7 22 C-9.64 22 -12.28 22 -15 22 C-15.19546065 17.69986566 -14.9955516 15.99110319 -13 12 C-10.03 12 -7.06 12 -4 12 C-4 8.7 -4 5.4 -4 2 C-2.68 2 -1.36 2 0 2 C0 1.34 0 0.68 0 0 Z " fill="#93999A" transform="translate(19,3)"/>
<path d="M0 0 C2.97 0.495 2.97 0.495 6 1 C9.92262006 1.10765905 9.92262006 1.10765905 13.4375 0.4375 C16.76176014 0.02925753 18.80414213 0.22262917 22 1 C25.92262006 1.10765905 25.92262006 1.10765905 29.4375 0.4375 C32.76176014 0.02925753 34.80414213 0.22262917 38 1 C39.32 1 40.64 1 42 1 C43.66666667 1 45.33333333 1 47 1 C47 1.99 47 2.98 47 4 C39.41 4 31.82 4 24 4 C24 9.28 24 14.56 24 20 C25.32 20 26.64 20 28 20 C28 18.02 28 16.04 28 14 C29.32 14 30.64 14 32 14 C32 13.34 32 12.68 32 12 C33.98 12 35.96 12 38 12 C38 11.01 38 10.02 38 9 C39.32 9 40.64 9 42 9 C42 10.32 42 11.64 42 13 C40.68 13 39.36 13 38 13 C38 14.32 38 15.64 38 17 C39.32 17 40.64 17 42 17 C42 16.01 42 15.02 42 14 C43.98 14 45.96 14 48 14 C48 15.98 48 17.96 48 20 C47.13117187 20.04898438 46.26234375 20.09796875 45.3671875 20.1484375 C44.21476562 20.22320312 43.06234375 20.29796875 41.875 20.375 C40.73804688 20.44460937 39.60109375 20.51421875 38.4296875 20.5859375 C35.03647233 20.99559674 32.22582713 21.91303651 29 23 C26.4453125 23.1953125 26.4453125 23.1953125 24.125 23.125 C23.34382813 23.10695313 22.56265625 23.08890625 21.7578125 23.0703125 C21.17773438 23.04710938 20.59765625 23.02390625 20 23 C20 24.65 20 26.3 20 28 C13.4 28 6.8 28 0 28 C0 18.76 0 9.52 0 0 Z " fill="#CFD6D9" transform="translate(6,32)"/>
<path d="M0 0 C4.36206448 -0.15305489 7.48295221 -0.15774339 11.6875 1.125 C15.5727761 2.15129935 16.44019283 1.56284217 20 0 C22.69249997 -0.18151685 25.29693649 -0.09162927 28 0 C28 4.62 28 9.24 28 14 C19.796875 16.24609375 19.796875 16.24609375 17 17 C16.360625 17.2371875 15.72125 17.474375 15.0625 17.71875 C10.15561772 18.38787031 4.52418052 15.49297957 0 14 C0 9.38 0 4.76 0 0 Z " fill="#4B94CF" transform="translate(19,3)"/>
<path d="M0 0 C1.32 0 2.64 0 4 0 C4 3.96 4 7.92 4 12 C5.216875 12.12375 6.43375 12.2475 7.6875 12.375 C10.15251634 12.62567963 11.98764457 12.99455127 14.26757812 14 C17.3005454 15.10999231 19.73483416 15.31491797 22.95703125 15.4140625 C24.06884766 15.45273437 25.18066406 15.49140625 26.32617188 15.53125 C28.0519043 15.57765625 28.0519043 15.57765625 29.8125 15.625 C30.98232422 15.66367187 32.15214844 15.70234375 33.35742188 15.7421875 C36.23812564 15.8362513 39.11882654 15.92189877 42 16 C41.67 16.66 41.34 17.32 41 18 C23.84 18 6.68 18 -11 18 C-10 12 -10 12 -9 10 C-6.03 10 -3.06 10 0 10 C0 6.7 0 3.4 0 0 Z " fill="#CFD7D9" transform="translate(15,5)"/>
<path d="M0 0 C5.28 0 10.56 0 16 0 C16 5.28 16 10.56 16 16 C10.72 16 5.44 16 0 16 C0 10.72 0 5.44 0 0 Z " fill="#4088CC" transform="translate(10,36)"/>
<path d="M0 0 C7.92 0 15.84 0 24 0 C24 3.3 24 6.6 24 10 C22.02 10 20.04 10 18 10 C18 10.99 18 11.98 18 13 C16.68 13 15.36 13 14 13 C14 11.68 14 10.36 14 9 C15.32 9 16.64 9 18 9 C18 7.68 18 6.36 18 5 C16.68 5 15.36 5 14 5 C14 5.99 14 6.98 14 8 C12.02 8 10.04 8 8 8 C8 8.66 8 9.32 8 10 C6.68 10 5.36 10 4 10 C4 11.98 4 13.96 4 16 C2.68 16 1.36 16 0 16 C0 10.72 0 5.44 0 0 Z " fill="#4994D4" transform="translate(30,36)"/>
<path d="M0 0 C1.85625 -0.061875 1.85625 -0.061875 3.75 -0.125 C4.79414063 -0.15980469 4.79414063 -0.15980469 5.859375 -0.1953125 C8 0 8 0 12 2 C12 5.3 12 8.6 12 12 C7.48281619 13.36884358 4.41225737 12.47075246 0 11 C0 7.37 0 3.74 0 0 Z " fill="#7ABFB9" transform="translate(19,3)"/>
<path d="M0 0 C1.32 0 2.64 0 4 0 C4 1.32 4 2.64 4 4 C2.68 4 1.36 4 0 4 C0 5.32 0 6.64 0 8 C1.32 8 2.64 8 4 8 C4 7.01 4 6.02 4 5 C5.98 5 7.96 5 10 5 C10 6.98 10 8.96 10 11 C3.4 11 -3.2 11 -10 11 C-10 9.02 -10 7.04 -10 5 C-8.68 5 -7.36 5 -6 5 C-6 4.34 -6 3.68 -6 3 C-4.02 3 -2.04 3 0 3 C0 2.01 0 1.02 0 0 Z " fill="#FACE06" transform="translate(44,41)"/>
<path d="M0 0 C5.28 0 10.56 0 16 0 C16 2.64 16 5.28 16 8 C10.72 8 5.44 8 0 8 C0 5.36 0 2.72 0 0 Z " fill="#F3AE14" transform="translate(10,52)"/>
<path d="M0 0 C0.10824843 1.6026782 0.18570645 3.20745748 0.25 4.8125 C0.29640625 5.70582031 0.3428125 6.59914063 0.390625 7.51953125 C0 10 0 10 -1.81640625 11.80859375 C-4.68101747 13.37157483 -6.78665473 13.28563069 -10 13 C-11 12 -11 12 -11.09765625 9.71484375 C-11.08605469 8.79832031 -11.07445312 7.88179687 -11.0625 6.9375 C-11.05347656 6.01839844 -11.04445312 5.09929688 -11.03515625 4.15234375 C-11.02355469 3.44207031 -11.01195312 2.73179687 -11 2 C-7.17010894 0.19769832 -4.21878192 -0.19622241 0 0 Z " fill="#5BB7E3" transform="translate(45,3)"/>
<path d="M0 0 C1.32 0 2.64 0 4 0 C4 3.96 4 7.92 4 12 C5.216875 12.12375 6.43375 12.2475 7.6875 12.375 C11.06479059 12.78891306 13.89756695 13.54573451 17 15 C17 15.33 17 15.66 17 16 C14.54137599 16.05383848 12.0839245 16.09359038 9.625 16.125 C8.57699219 16.15013672 8.57699219 16.15013672 7.5078125 16.17578125 C5.67102514 16.19344267 3.83398037 16.10303261 2 16 C0 14 0 14 -0.1953125 10.7421875 C-0.17210937 9.46601563 -0.14890625 8.18984375 -0.125 6.875 C-0.10695313 5.59367188 -0.08890625 4.31234375 -0.0703125 2.9921875 C-0.04710937 2.00476563 -0.02390625 1.01734375 0 0 Z " fill="#B9E935" transform="translate(15,5)"/>
<path d="M0 0 C0.66 0 1.32 0 2 0 C2 3.3 2 6.6 2 10 C3.32 10 4.64 10 6 10 C6 7.36 6 4.72 6 2 C7.32 1.34 8.64 0.68 10 0 C10.02687279 1.81242052 10.04633715 3.62495233 10.0625 5.4375 C10.07410156 6.44683594 10.08570313 7.45617188 10.09765625 8.49609375 C10 11 10 11 9 12 C7.14712498 12.07226502 5.29166122 12.0838122 3.4375 12.0625 C2.42558594 12.05347656 1.41367188 12.04445313 0.37109375 12.03515625 C-0.41136719 12.02355469 -1.19382812 12.01195312 -2 12 C-2.05395478 10.37536158 -2.09277195 8.75021459 -2.125 7.125 C-2.14820313 6.22007813 -2.17140625 5.31515625 -2.1953125 4.3828125 C-2 2 -2 2 0 0 Z " fill="#76B6BC" transform="translate(13,37)"/>
<path d="M0 0 C1.32 0 2.64 0 4 0 C4.05384521 2.29141286 4.09272087 4.58318188 4.125 6.875 C4.14820312 8.15117187 4.17140625 9.42734375 4.1953125 10.7421875 C4 14 4 14 2 16 C-0.58064129 16.14497985 -3.04943884 16.18677545 -5.625 16.125 C-6.68460938 16.11146484 -6.68460938 16.11146484 -7.765625 16.09765625 C-9.51056098 16.07407603 -11.25532295 16.03820461 -13 16 C-8.75497112 12.36835832 -5.45522838 12.40111973 0 12 C0 8.04 0 4.08 0 0 Z " fill="#C1EF36" transform="translate(47,5)"/>
<path d="M0 0 C2.31 0 4.62 0 7 0 C7 3.63 7 7.26 7 11 C6.34 11 5.68 11 5 11 C5 7.7 5 4.4 5 1 C1.7882039 2.63778399 1.7882039 2.63778399 1.48828125 5.3828125 C1.40126953 6.74019531 1.40126953 6.74019531 1.3125 8.125 C1.24675781 9.03507812 1.18101563 9.94515625 1.11328125 10.8828125 C1.07589844 11.58148438 1.03851563 12.28015625 1 13 C1.61875 12.814375 2.2375 12.62875 2.875 12.4375 C5 12 5 12 7 13 C7 13.99 7 14.98 7 16 C4.69 16 2.38 16 0 16 C0 10.72 0 5.44 0 0 Z " fill="#4891D3" transform="translate(10,36)"/>
<path d="M0 0 C2.97 0 5.94 0 9 0 C9.66 1.98 10.32 3.96 11 6 C6.71 6 2.42 6 -2 6 C-1.34 4.02 -0.68 2.04 0 0 Z " fill="#949A9A" transform="translate(6,15)"/>
<path d="M0 0 C2.31 0 4.62 0 7 0 C7 2.64 7 5.28 7 8 C4.69 8 2.38 8 0 8 C0 5.36 0 2.72 0 0 Z " fill="#F9B807" transform="translate(19,52)"/>
<path d="M0 0 C0.66 0 1.32 0 2 0 C2 4.62 2 9.24 2 14 C-9.25 16.27678571 -9.25 16.27678571 -13 15 C-8.70497665 12.57666114 -4.8670453 12.42944517 0 12 C0 8.04 0 4.08 0 0 Z " fill="#9FD420" transform="translate(47,5)"/>
<path d="M0 0 C2.64 0 5.28 0 8 0 C8.042721 1.66611905 8.04063832 3.33382885 8 5 C7 6 7 6 4.5625 6.1875 C2 6 2 6 0 4 C0 2.68 0 1.36 0 0 Z " fill="#4E9DDA" transform="translate(52,25)"/>
<path d="M0 0 C2.64 0 5.28 0 8 0 C7.125 4.875 7.125 4.875 6 6 C3.5 6.125 3.5 6.125 1 6 C0 5 0 5 -0.0625 2.4375 C-0.041875 1.633125 -0.02125 0.82875 0 0 Z " fill="#4E9EDB" transform="translate(4,25)"/>
<path d="M0 0 C2.64 0 5.28 0 8 0 C7.67 1.65 7.34 3.3 7 5 C4.625 5.625 4.625 5.625 2 6 C1.34 5.34 0.68 4.68 0 4 C0 2.68 0 1.36 0 0 Z " fill="#F9C708" transform="translate(44,25)"/>
<path d="M0 0 C2.64 0 5.28 0 8 0 C7.67 1.65 7.34 3.3 7 5 C4.625 5.625 4.625 5.625 2 6 C1.34 5.34 0.68 4.68 0 4 C0 2.68 0 1.36 0 0 Z " fill="#4E9DD9" transform="translate(36,25)"/>
<path d="M0 0 C2.64 0 5.28 0 8 0 C7.67 1.65 7.34 3.3 7 5 C4.625 5.625 4.625 5.625 2 6 C1.34 5.34 0.68 4.68 0 4 C0 2.68 0 1.36 0 0 Z " fill="#F9C708" transform="translate(28,25)"/>
<path d="M0 0 C2.64 0 5.28 0 8 0 C7.67 1.65 7.34 3.3 7 5 C4.625 5.625 4.625 5.625 2 6 C1.34 5.34 0.68 4.68 0 4 C0 2.68 0 1.36 0 0 Z " fill="#4E9DD9" transform="translate(20,25)"/>
<path d="M0 0 C2.64 0 5.28 0 8 0 C7.67 1.65 7.34 3.3 7 5 C4.625 5.625 4.625 5.625 2 6 C1.34 5.34 0.68 4.68 0 4 C0 2.68 0 1.36 0 0 Z " fill="#F9C708" transform="translate(12,25)"/>
<path d="M0 0 C0.66 0 1.32 0 2 0 C2 3.63 2 7.26 2 11 C1.01 11.495 1.01 11.495 0 12 C0 11.34 0 10.68 0 10 C-0.66 10 -1.32 10 -2 10 C-2.1953125 3.9453125 -2.1953125 3.9453125 -2 2 C-1.34 1.34 -0.68 0.68 0 0 Z " fill="#56B5E9" transform="translate(21,37)"/>
<path d="M0 0 C1.98 0 3.96 0 6 0 C6 1.98 6 3.96 6 6 C4.02 6 2.04 6 0 6 C0 4.02 0 2.04 0 0 Z " fill="#8DBF27" transform="translate(48,46)"/>
<path d="M0 0 C2.64 0 5.28 0 8 0 C7.04578192 1.14926266 6.08647955 2.29430541 5.125 3.4375 C4.59132813 4.07558594 4.05765625 4.71367188 3.5078125 5.37109375 C2 7 2 7 0 8 C0 5.36 0 2.72 0 0 Z " fill="#57B7EB" transform="translate(30,36)"/>
<path d="M0 0 C1.32 0 2.64 0 4 0 C4 1.32 4 2.64 4 4 C2.68 4 1.36 4 0 4 C0 4.66 0 5.32 0 6 C-1.98 6 -3.96 6 -6 6 C-6 5.01 -6 4.02 -6 3 C-4.02 3 -2.04 3 0 3 C0 2.01 0 1.02 0 0 Z " fill="#D6E41C" transform="translate(44,41)"/>
<path d="M0 0 C3.3 0 6.6 0 10 0 C10 0.99 10 1.98 10 3 C6.7 3 3.4 3 0 3 C0 2.01 0 1.02 0 0 Z " fill="#C5CD15" transform="translate(38,49)"/>
<path d="M0 0 C0.33 0 0.66 0 1 0 C1 3.3 1 6.6 1 10 C-0.65 10 -2.3 10 -4 10 C-2.68 6.7 -1.36 3.4 0 0 Z " fill="#2D72BC" transform="translate(53,36)"/>
<path d="M0 0 C1.98 0 3.96 0 6 0 C5.67 1.32 5.34 2.64 5 4 C3.02 4 1.04 4 -1 4 C-0.67 2.68 -0.34 1.36 0 0 Z " fill="#CDD5D7" transform="translate(6,15)"/>
<path d="M0 0 C2.31 0 4.62 0 7 0 C7 0.99 7 1.98 7 3 C4.69 3 2.38 3 0 3 C0 2.01 0 1.02 0 0 Z " fill="#F9E109" transform="translate(19,52)"/>
<path d="M0 0 C2.31 0 4.62 0 7 0 C7 0.99 7 1.98 7 3 C4.69 3 2.38 3 0 3 C0 2.01 0 1.02 0 0 Z " fill="#F9E109" transform="translate(10,52)"/>
<path d="M0 0 C1.65 0 3.3 0 5 0 C5.33 1.32 5.66 2.64 6 4 C4.35 4 2.7 4 1 4 C0.67 2.68 0.34 1.36 0 0 Z " fill="#CCD4D6" transform="translate(53,15)"/>
<path d="M0 0 C1.32 0 2.64 0 4 0 C4 1.65 4 3.3 4 5 C2.68 5 1.36 5 0 5 C0 3.35 0 1.7 0 0 Z " fill="#93999A" transform="translate(6,55)"/>
<path d="M0 0 C0 0.66 0 1.32 0 2 C-2.64 2.33 -5.28 2.66 -8 3 C-8 2.34 -8 1.68 -8 1 C-5.29120665 -0.35439668 -2.99066732 -0.06501451 0 0 Z " fill="#DBD932" transform="translate(44,11)"/>
<path d="M0 0 C0 0.66 0 1.32 0 2 C-2.64 2.33 -5.28 2.66 -8 3 C-8 2.34 -8 1.68 -8 1 C-5.29120665 -0.35439668 -2.99066732 -0.06501451 0 0 Z " fill="#DBD932" transform="translate(44,7)"/>
</svg>
